<?xml version="1.0" encoding="utf-8"?>
<!-- Generator: Adobe Illustrator 26.0.0, SVG Export Plug-In . SVG Version: 6.00 Build 0)  -->
<svg version="1.1" id="Layer_1" xmlns="http://www.w3.org/2000/svg" xmlns:xlink="http://www.w3.org/1999/xlink" x="0px" y="0px"
	 viewBox="0 0 24 24" style="enable-background:new 0 0 24 24;" xml:space="preserve">
<style type="text/css">
	.st0{fill:#1D1D1B;}
</style>
<path class="st0" d="M19.8,10.3V13l0,0L19,10.3h-1.3v3.4h0.8v-2.8l0,0l0.8,2.8h1.2v-3.4C20.5,10.3,19.8,10.3,19.8,10.3z M3.7,10.3
	L3,13.7h1l0.5-3.1l0,0L5,13.7h0.9l-0.6-3.4C5.3,10.3,3.7,10.3,3.7,10.3z M8.8,10.3l-0.4,2.6l0,0L8,10.3H6.6l-0.1,3.4h0.9v-3.1l0,0
	L8,13.7h0.9l0.6-3.1l0,0v3.1h0.9l-0.1-3.4C10.3,10.3,8.8,10.3,8.8,10.3z M1.6,12.7c0,0.1,0,0.2,0,0.3s-0.1,0.2-0.3,0.2
	S1,13.1,1,12.9v-0.3H0v0.3c0,0.8,0.6,1,1.2,1s1.1-0.2,1.2-0.8c0-0.3,0-0.5,0-0.6c-0.2-0.7-1.5-0.9-1.6-1.3c0-0.1,0-0.1,0-0.2
	c0-0.1,0.1-0.2,0.3-0.2s0.3,0.1,0.3,0.3v0.2h0.9V11c0-0.7-0.7-0.9-1.2-0.9c-0.6,0-1.1,0.2-1.2,0.8c0,0.1,0,0.3,0,0.5
	C0.2,12.1,1.4,12.3,1.6,12.7 M12.7,12.7c0,0.1,0,0.2,0,0.3s-0.1,0.2-0.3,0.2s-0.3-0.1-0.3-0.3v-0.3h-0.9v0.3c0,0.8,0.6,1,1.2,1
	c0.6,0,1.1-0.2,1.2-0.8c0-0.3,0-0.5,0-0.6c-0.1-0.7-1.4-0.9-1.5-1.3c0-0.1,0-0.1,0-0.2c0-0.1,0.1-0.2,0.3-0.2s0.3,0.1,0.3,0.3v0.2
	h0.8V11c0-0.7-0.7-0.9-1.1-0.9c-0.6,0-1.1,0.2-1.2,0.8c0,0.1,0,0.3,0,0.5C11.4,12.1,12.6,12.3,12.7,12.7 M15.6,13.2
	c0.2,0,0.3-0.2,0.3-0.3v-0.1v-2.5h0.9v2.5c0,0.1,0,0.2,0,0.2c-0.1,0.6-0.6,0.8-1.2,0.8c-0.6,0-1.1-0.2-1.2-0.8v-0.2v-2.5h0.9v2.5
	v0.1C15.3,13,15.4,13.2,15.6,13.2 M22.8,13.2c0.3,0,0.3-0.2,0.4-0.3v-0.1v-0.5h-0.4v-0.5H24v0.9c0,0.1,0,0.1,0,0.2
	c-0.1,0.6-0.6,0.8-1.2,0.8s-1.1-0.2-1.2-0.8c0-0.1,0-0.2,0-0.2v-1.4c0-0.1,0-0.2,0-0.2c0.1-0.6,0.6-0.8,1.2-0.8s1.1,0.2,1.2,0.8
	c0,0.1,0,0.2,0,0.2v0.1h-0.9v-0.2v-0.1c0-0.1-0.1-0.3-0.3-0.3c-0.3,0-0.3,0.2-0.3,0.3c0,0,0,0.1,0,0.2v1.6V13
	C22.4,13,22.5,13.2,22.8,13.2"/>
</svg>
